<?xml version="1.0" encoding="UTF-8" standalone="no"?>
<svg
   height="21"
   width="99.647003"
   xml:space="preserve"
   y="0"
   x="0"
   id="Layer_1"
   version="1.1"
   viewBox="-57.15 -21.25 41.129301 3.3468755"
   sodipodi:docname="mp3.svg"
   inkscape:version="1.3 (0e150ed6c4, 2023-07-21)"
   xmlns:inkscape="http://www.inkscape.org/namespaces/inkscape"
   xmlns:sodipodi="http://sodipodi.sourceforge.net/DTD/sodipodi-0.dtd"
   xmlns="http://www.w3.org/2000/svg"
   xmlns:svg="http://www.w3.org/2000/svg"><defs
     id="defs25935" /><sodipodi:namedview
     id="namedview25933"
     pagecolor="#ffffff"
     bordercolor="#666666"
     borderopacity="1.0"
     inkscape:pageshadow="2"
     inkscape:pageopacity="0.0"
     inkscape:pagecheckerboard="0"
     showgrid="false"
     fit-margin-top="0"
     fit-margin-left="0"
     fit-margin-right="0"
     fit-margin-bottom="0"
     inkscape:zoom="8.31"
     inkscape:cx="57.641396"
     inkscape:cy="17.870036"
     inkscape:window-width="1920"
     inkscape:window-height="1017"
     inkscape:window-x="-8"
     inkscape:window-y="-8"
     inkscape:window-maximized="1"
     inkscape:current-layer="layer2"
     inkscape:showpageshadow="2"
     inkscape:deskcolor="#d1d1d1" /><style
     id="style7427"
     type="text/css">.st2{fill:#282828}</style><g
     inkscape:groupmode="layer"
     id="layer2"
     inkscape:label="Layer 2"><g
       id="layer2-1"
       inkscape:label="Layer 2"
       transform="matrix(0.08402779,0,0,0.08402779,-52.526517,-19.523549)"><path
         d="M -7.8568665,-44.848347 A 45.280754,45.280754 0 1 0 37.423888,0.43240746 45.280754,45.280754 0 0 0 -7.8568665,-44.848347 Z m -10.3692995,37.5377392 5.841224,5.8864986 V -26.736044 h 9.0561504 V -1.4241092 L 2.5124206,-7.2653214 8.897012,-0.88074004 -7.8568665,15.873139 -24.656032,-0.88074004 Z m 28.4816,34.9114678 h -36.224602 v -9.056151 h 36.224602 z"
         data-name="Layer 2"
         id="path1"
         style="fill:#ababab;fill-opacity:1;stroke:none;stroke-width:4.52808" /><path
         style="font-weight:600;font-size:86.5359px;font-family:'Segoe UI';-inkscape-font-specification:'Segoe UI Semi-Bold';letter-spacing:-2.22px;word-spacing:-0.0444px;baseline-shift:baseline;fill:#ababab;stroke-width:7.21132"
         d="m 60.986123,31.754578 v -60.592029 h 17.493096 q 33.507311,0 33.507311,29.53544476 0,14.02828024 -9.29585,22.56355924 -9.29585,8.493025 -24.929776,8.493025 z m 10.014164,-52.05675 v 43.563725 h 8.028232 q 10.605718,0 16.479004,-5.831032 5.915537,-5.831032 5.915537,-16.47900411 0,-21.25368889 -22.014256,-21.25368889 z M 138.92169,32.76867 q -10.01417,0 -16.01421,-6.042301 -5.9578,-6.084555 -5.9578,-16.098719 0,-10.90149492 6.21132,-17.028304 6.25357,-6.126809 16.81703,-6.126809 10.14093,0 15.80295,5.9577936 5.66201,5.95779363 5.66201,16.5212575 0,10.3521949 -6.12681,16.6057649 -6.08455,6.211317 -16.39449,6.211317 z m 0.46479,-37.4791698 q -5.74652,0 -9.08458,4.01411632 -3.33805,4.01411628 -3.33805,11.07051048 0,6.80287 3.3803,10.732479 3.38031,3.887355 9.04233,3.887355 5.78878,0 8.87331,-3.845101 3.12678,-3.845101 3.12678,-10.943749 0,-7.1409013 -3.12678,-11.02825604 -3.08453,-3.88735476 -8.87331,-3.88735476 z M 227.37846,-11.513371 214.6178,31.754578 H 204.35011 L 196.49089,2.4304018 q -0.46479,-1.69015419 -0.59155,-3.802847 h -0.16902 q -0.0845,1.43663112 -0.76056,3.7183393 l -8.53528,29.4086839 h -10.05642 l -12.71841,-43.267949 h 10.14092 l 7.85922,31.183346 q 0.38029,1.394377 0.50705,3.718339 h 0.29577 q 0.12677,-1.774662 0.67607,-3.802847 l 8.74654,-31.098838 h 9.21134 l 7.77471,31.310107 q 0.38029,1.478885 0.5493,3.71834 h 0.29578 q 0.0845,-1.563393 0.63381,-3.71834 l 7.6902,-31.310107 z m 43.58318,43.267949 h -9.80289 V 7.3741029 q 0,-12.1268565 -8.57753,-12.1268565 -4.47891,0 -7.39443,3.3803084 -2.91551,3.3380546 -2.91551,8.4507712 v 24.676252 h -9.84515 v -43.267949 h 9.84515 v 7.1831559 h 0.16901 q 4.85919,-8.1972479 14.02828,-8.1972479 7.0564,0 10.77473,4.6056702 3.71834,4.5634164 3.71834,13.2254568 z m 19.583,0 h -9.84515 v -64.056845 h 9.84515 z m 29.7239,1.014092 q -10.01416,0 -16.01421,-6.042301 -5.95779,-6.084555 -5.95779,-16.098719 0,-10.90149492 6.21131,-17.028304 6.25358,-6.126809 16.81704,-6.126809 10.14092,0 15.80294,5.9577936 5.66202,5.95779363 5.66202,16.5212575 0,10.3521949 -6.12681,16.6057649 -6.08456,6.211317 -16.3945,6.211317 z m 0.46479,-37.4791698 q -5.74652,0 -9.08457,4.01411632 -3.33806,4.01411628 -3.33806,11.07051048 0,6.80287 3.38031,10.732479 3.38031,3.887355 9.04232,3.887355 5.78878,0 8.87331,-3.845101 3.12679,-3.845101 3.12679,-10.943749 0,-7.1409013 -3.12679,-11.02825604 -3.08453,-3.88735476 -8.87331,-3.88735476 z m 62.00586,36.4650778 h -9.50712 v -6.760617 h -0.16901 q -4.47891,7.774709 -13.14095,7.774709 -6.38033,0 -10.01417,-3.464816 -3.59157,-3.464816 -3.59157,-9.169087 0,-12.2536178 14.11278,-14.2818029 l 12.84518,-1.8169157 q 0,-9.2535944 -8.78881,-9.2535944 -7.73245,0 -13.94377,5.32398578 V -8.4710929 q 6.84513,-4.0563701 15.80294,-4.0563701 16.3945,0 16.3945,16.1409728 z m -9.46486,-21.25369 -9.08458,1.267616 q -4.22539,0.5493 -6.38033,2.070439 -2.1127,1.478885 -2.1127,5.239478 0,2.746501 1.94368,4.521163 1.98593,1.732408 5.28173,1.732408 4.47891,0 7.39443,-3.126786 2.95777,-3.169039 2.95777,-7.943725 z m 58.54104,21.25369 h -9.80289 v -7.352171 h -0.16902 q -4.73243,8.366263 -14.57758,8.366263 -7.98598,0 -12.80292,-5.788778 -4.77468,-5.831032 -4.77468,-15.845196 0,-10.73247923 5.28173,-17.1973191 5.32398,-6.4648399 14.15504,-6.4648399 8.74655,0 12.71841,7.01414 h 0.16902 v -26.788944 h 9.80289 z M 422.13924,11.979773 V 6.3177566 q 0,-4.6056703 -3.00003,-7.8169633 -3.00002,-3.2112931 -7.64794,-3.2112931 -5.49301,0 -8.66204,4.09862403 -3.12679,4.09862397 -3.12679,11.36628677 0,6.591602 3.00002,10.436703 3.04228,3.802847 8.155,3.802847 5.02821,0 8.15499,-3.676086 3.12679,-3.718339 3.12679,-9.338102 z"
         id="text3"
         aria-label="Download" /></g></g><style
     id="style7427-2"
     type="text/css">.st2{fill:#282828}</style></svg>
