<?xml version="1.0" encoding="UTF-8" standalone="no"?>
<!-- Created with Inkscape (http://www.inkscape.org/) -->

<svg
   width="276.22461mm"
   height="205.125mm"
   viewBox="0 0 276.22461 205.125"
   version="1.1"
   id="svg1"
   xml:space="preserve"
   inkscape:version="1.3 (0e150ed6c4, 2023-07-21)"
   sodipodi:docname="shadow.svg"
   inkscape:export-filename="shadow.png"
   inkscape:export-xdpi="96"
   inkscape:export-ydpi="96"
   xmlns:inkscape="http://www.inkscape.org/namespaces/inkscape"
   xmlns:sodipodi="http://sodipodi.sourceforge.net/DTD/sodipodi-0.dtd"
   xmlns:xlink="http://www.w3.org/1999/xlink"
   xmlns="http://www.w3.org/2000/svg"
   xmlns:svg="http://www.w3.org/2000/svg"><sodipodi:namedview
     id="namedview1"
     pagecolor="#ffffff"
     bordercolor="#000000"
     borderopacity="0.25"
     inkscape:showpageshadow="2"
     inkscape:pageopacity="0.0"
     inkscape:pagecheckerboard="0"
     inkscape:deskcolor="#d1d1d1"
     inkscape:document-units="mm"
     inkscape:zoom="2.0686841"
     inkscape:cx="549.38306"
     inkscape:cy="76.618755"
     inkscape:window-width="1920"
     inkscape:window-height="1017"
     inkscape:window-x="-8"
     inkscape:window-y="-8"
     inkscape:window-maximized="1"
     inkscape:current-layer="layer1" /><defs
     id="defs1"><linearGradient
       id="linearGradient2"
       inkscape:collect="always"><stop
         style="stop-color:#ffffff;stop-opacity:0.69611305;"
         offset="0"
         id="stop2" /><stop
         style="stop-color:#cb1d6c;stop-opacity:0.69611305;"
         offset="1"
         id="stop3" /></linearGradient><linearGradient
       inkscape:collect="always"
       xlink:href="#linearGradient2"
       id="linearGradient3"
       x1="-80.770508"
       y1="255.45898"
       x2="-80.770508"
       y2="95.386719"
       gradientUnits="userSpaceOnUse"
       gradientTransform="translate(-9.3750005e-7,22.499994)" /></defs><g
     inkscape:label="Layer 1"
     inkscape:groupmode="layer"
     id="layer1"
     transform="translate(103.12695,-95.333974)"><path
       style="color:#000000;fill:url(#linearGradient3);fill-opacity:1;stroke-linecap:square;stroke-linejoin:round;-inkscape-stroke:none"
       d="m 136.98242,117.83398 c -3.80105,0 -6.94757,2.55961 -8.07031,6.00586 H -58.953126 c -1.138556,-3.41937 -4.276825,-5.95313 -8.058594,-5.95313 h -27.517578 c -4.71805,0 -8.597652,3.88156 -8.597652,8.59962 v 142.875 c 0,4.71804 3.879873,8.59765 8.597652,8.59765 h 27.517578 c 3.781552,0 6.919978,-2.53193 8.058594,-5.95117 H 128.92187 c 1.1386,3.41928 4.27897,5.95117 8.06055,5.95117 h 27.51563 c 4.71777,0 8.59961,-3.8796 8.59961,-8.59765 v -142.875 l -0.002,-0.002 c 7.8e-4,0.0359 0.002,0.11695 0.002,-0.0527 0,-4.71806 -3.88157,-8.59766 -8.59961,-8.59766 z"
       id="rect1"
       sodipodi:nodetypes="sccssssssccsssccsss" /></g></svg>
