<?xml version="1.0" encoding="UTF-8" standalone="no"?>
<svg
   height="21"
   width="82.647003"
   xml:space="preserve"
   y="0"
   x="0"
   id="Layer_1"
   version="1.1"
   viewBox="-57.15 -21.25 34.112551 3.3468755"
   sodipodi:docname="ytgray.svg"
   inkscape:version="1.3 (0e150ed6c4, 2023-07-21)"
   xmlns:inkscape="http://www.inkscape.org/namespaces/inkscape"
   xmlns:sodipodi="http://sodipodi.sourceforge.net/DTD/sodipodi-0.dtd"
   xmlns="http://www.w3.org/2000/svg"
   xmlns:svg="http://www.w3.org/2000/svg"><defs
     id="defs25935" /><sodipodi:namedview
     id="namedview25933"
     pagecolor="#ffffff"
     bordercolor="#666666"
     borderopacity="1.0"
     inkscape:pageshadow="2"
     inkscape:pageopacity="0.0"
     inkscape:pagecheckerboard="0"
     showgrid="false"
     fit-margin-top="0"
     fit-margin-left="0"
     fit-margin-right="0"
     fit-margin-bottom="0"
     inkscape:zoom="8.31"
     inkscape:cx="57.641396"
     inkscape:cy="17.870036"
     inkscape:window-width="1920"
     inkscape:window-height="1017"
     inkscape:window-x="-8"
     inkscape:window-y="-8"
     inkscape:window-maximized="1"
     inkscape:current-layer="layer2"
     inkscape:showpageshadow="2"
     inkscape:deskcolor="#d1d1d1" /><style
     id="style7427"
     type="text/css">.st2{fill:#282828}</style><g
     inkscape:groupmode="layer"
     id="layer2"
     inkscape:label="Layer 2"><path
       id="path7429"
       style="fill:#ababab;fill-opacity:1;stroke-width:0.0888426"
       d="m -51.584446,-23.816563 c 0,0 -3.376043,-1.1e-5 -4.22005,0.222097 -0.453099,0.124387 -0.826244,0.497522 -0.950625,0.959506 -0.222108,0.844008 -0.222097,2.594254 -0.222097,2.594254 0,0 -1.1e-5,1.75906 0.222097,2.594183 0.124386,0.461985 0.488642,0.826246 0.950625,0.950626 0.852892,0.230992 4.22005,0.230978 4.22005,0.230978 0,0 3.376043,1.2e-5 4.22005,-0.222097 0.461983,-0.124386 0.826246,-0.488641 0.950625,-0.950624 0.222108,-0.84401 0.222097,-2.594184 0.222097,-2.594184 0,0 0.0089,-1.759128 -0.222097,-2.603136 -0.124374,-0.461984 -0.488642,-0.826245 -0.950625,-0.950626 -0.844007,-0.23099 -4.22005,-0.230977 -4.22005,-0.230977 z m 22.175211,0.293216 v 6.716473 h 0.879505 l 0.106641,-0.444194 h 0.02664 c 0.07996,0.159918 0.204344,0.284299 0.373145,0.382027 0.168802,0.08884 0.346499,0.142166 0.550839,0.142166 0.364254,0 0.621891,-0.168831 0.790694,-0.497549 0.168801,-0.328719 0.25762,-0.852891 0.25762,-1.55475 v -0.746291 c -0.0089,-0.541941 -0.0355,-0.959468 -0.09769,-1.25265 -0.06218,-0.302065 -0.168829,-0.515335 -0.310978,-0.648599 -0.142148,-0.133266 -0.346481,-0.204335 -0.595241,-0.204335 -0.195454,0 -0.382036,0.05331 -0.550838,0.168811 -0.168801,0.106616 -0.302063,0.257627 -0.390906,0.435313 h -0.0089 v -2.496422 z m -15.70748,0.239858 1.208316,4.37991 h 0.0089 v 2.096705 h 1.048315 v -2.096705 l 1.22608,-4.37991 h -1.057278 l -0.444193,1.990061 c -0.124388,0.586364 -0.204323,0.995081 -0.239859,1.243841 h -0.02672 c -0.0533,-0.346487 -0.133247,-0.764084 -0.239859,-1.252721 l -0.426431,-1.981181 z m 9.346321,0 v 0.861745 h 1.057196 v 5.61487 h 1.039508 v -5.61487 h 1.057196 v -0.861745 z m -16.889083,1.625798 2.80747,1.616985 -2.80747,1.616916 z m 28.163224,0.01776 c -0.524173,0 -0.897327,0.159951 -1.119435,0.48867 -0.222106,0.328718 -0.328668,0.844003 -0.328668,1.554747 v 0.826219 c 0,0.692976 0.106565,1.199388 0.319788,1.528106 0.213222,0.32872 0.577499,0.497552 1.101672,0.497552 0.43533,0 0.772916,-0.106642 1.012792,-0.31986 0.239876,-0.213222 0.355384,-0.541936 0.355384,-0.977269 0,-0.07107 4e-6,-0.124387 -0.0089,-0.16881 l -0.915101,-0.05329 c -0.0089,0.293181 -0.0355,0.497505 -0.09769,0.621886 -0.06218,0.124387 -0.168822,0.186572 -0.32874,0.186572 -0.124374,0 -0.213196,-0.03557 -0.266501,-0.10664 -0.06218,-0.06218 -0.09776,-0.177636 -0.11552,-0.32867 -0.01777,-0.151033 -0.02664,-0.382057 -0.02664,-0.684123 v -0.239859 -0.01776 h 1.785726 v -0.808457 c 0,-0.497521 -0.03549,-0.888425 -0.115457,-1.172722 -0.07995,-0.275414 -0.213215,-0.488693 -0.40867,-0.621958 -0.195453,-0.133263 -0.479796,-0.204334 -0.844053,-0.204334 z m -15.911742,0.01776 c -0.355371,0 -0.639707,0.07107 -0.861815,0.213214 -0.213222,0.142151 -0.373105,0.364293 -0.479718,0.675245 -0.09772,0.310949 -0.151047,0.719601 -0.151047,1.226006 v 0.684123 c 0,0.497521 0.04443,0.906181 0.133287,1.208247 0.08884,0.310951 0.23985,0.533094 0.453073,0.675243 0.213223,0.142149 0.515319,0.213212 0.888458,0.222096 0.364258,0 0.657402,-0.07107 0.870625,-0.213215 0.213223,-0.142148 0.3643,-0.373177 0.462027,-0.675244 0.09772,-0.31095 0.142095,-0.710721 0.142095,-1.217127 v -0.684123 c 0,-0.515288 -0.05325,-0.923941 -0.150977,-1.226006 -0.09772,-0.302067 -0.248803,-0.533094 -0.462027,-0.675245 -0.213222,-0.142147 -0.497493,-0.213214 -0.843981,-0.213214 z m 2.007823,0.08888 v 3.535927 c 0,0.444215 0.07106,0.76405 0.222096,0.968389 0.151033,0.204337 0.382054,0.310977 0.693004,0.310977 0.453099,0 0.799565,-0.222149 1.021673,-0.65748 h 0.02664 l 0.08888,0.57748 h 0.8351 v -4.735293 h -1.066077 v 3.758024 c -0.03554,0.08884 -0.09774,0.15991 -0.186573,0.213217 -0.08884,0.06218 -0.17773,0.08888 -0.266574,0.08888 -0.106615,0 -0.186556,-0.04443 -0.230978,-0.133287 -0.04442,-0.08884 -0.07104,-0.239851 -0.07104,-0.453075 v -3.47376 z m 5.463892,0 v 3.535927 c 0,0.444215 0.07106,0.76405 0.222096,0.968389 0.151033,0.204337 0.381981,0.310977 0.692932,0.310977 0.453099,0 0.799637,-0.222149 1.021744,-0.65748 h 0.02664 l 0.0888,0.57748 h 0.835172 v -4.735293 h -1.066149 v 3.758024 c -0.03554,0.08884 -0.09774,0.15991 -0.186573,0.213217 -0.08884,0.06218 -0.177658,0.08888 -0.266501,0.08888 -0.106616,0 -0.186628,-0.04443 -0.23105,-0.133287 -0.04442,-0.08884 -0.07105,-0.239851 -0.07105,-0.453075 v -3.47376 z m 8.368765,0.629477 c 0.01419,-2.61e-4 0.02908,1.8e-4 0.04461,0.0014 0.106616,0 0.195434,0.03557 0.24874,0.09776 0.0533,0.06218 0.09776,0.168751 0.115521,0.328668 0.01777,0.159918 0.02664,0.390938 0.02664,0.693005 v 0.33762 h -0.781814 v -0.33762 c 0,-0.310951 0.0089,-0.541972 0.02664,-0.693005 0.01777,-0.151032 0.05334,-0.257594 0.10664,-0.328668 0.04664,-0.06218 0.113649,-0.09723 0.213002,-0.09905 z m -15.858242,0.01018 c 0.151033,0 0.248717,0.07106 0.310907,0.230979 0.06218,0.159917 0.08888,0.408686 0.08888,0.74629 v 1.474818 c 0,0.346488 -0.02669,0.60414 -0.08888,0.755173 -0.06219,0.159917 -0.159878,0.230977 -0.302026,0.230977 -0.151033,0 -0.257672,-0.07994 -0.310978,-0.230977 -0.06218,-0.151033 -0.0888,-0.408685 -0.0888,-0.755173 v -1.474818 c 0,-0.337604 0.02662,-0.586373 0.0888,-0.74629 0.0533,-0.151034 0.159948,-0.230979 0.302097,-0.230979 z m 12.526865,0.01776 c 0.106615,0 0.195433,0.04445 0.248739,0.124399 0.06218,0.08884 0.09775,0.230978 0.124399,0.426432 0.02666,0.20434 0.03552,0.488679 0.03552,0.852935 v 0.621884 h -0.0089 c 0,0.346487 -0.01782,0.613003 -0.04447,0.808457 -0.02665,0.195455 -0.0799,0.337593 -0.142095,0.417553 -0.07107,0.07996 -0.159962,0.124399 -0.266573,0.124399 -0.08884,0 -0.168785,-0.01782 -0.239859,-0.06224 -0.07107,-0.04442 -0.13327,-0.106615 -0.177691,-0.186572 v -2.682994 c 0.03553,-0.124375 0.09774,-0.231016 0.186571,-0.31986 0.08884,-0.07996 0.186609,-0.124399 0.284336,-0.124399 z" /></g><style
     id="style7427-2"
     type="text/css">.st2{fill:#282828}</style></svg>
