<?xml version="1.0" encoding="UTF-8" standalone="no"?>
<svg
   height="205.93579"
   width="923.0769"
   xml:space="preserve"
   y="0"
   x="0"
   id="Layer_1"
   version="1.1"
   viewBox="-57.15 -21.25 380.99999 32.821017"
   sodipodi:docname="ytgray.svg"
   inkscape:version="1.3 (0e150ed6c4, 2023-07-21)"
   xmlns:inkscape="http://www.inkscape.org/namespaces/inkscape"
   xmlns:sodipodi="http://sodipodi.sourceforge.net/DTD/sodipodi-0.dtd"
   xmlns="http://www.w3.org/2000/svg"
   xmlns:svg="http://www.w3.org/2000/svg"><defs
     id="defs25935" /><sodipodi:namedview
     id="namedview25933"
     pagecolor="#ffffff"
     bordercolor="#666666"
     borderopacity="1.0"
     inkscape:pageshadow="2"
     inkscape:pageopacity="0.0"
     inkscape:pagecheckerboard="0"
     showgrid="false"
     fit-margin-top="0"
     fit-margin-left="0"
     fit-margin-right="0"
     fit-margin-bottom="0"
     inkscape:zoom="0.519375"
     inkscape:cx="188.68833"
     inkscape:cy="181.94946"
     inkscape:window-width="1920"
     inkscape:window-height="1017"
     inkscape:window-x="-8"
     inkscape:window-y="-8"
     inkscape:window-maximized="1"
     inkscape:current-layer="layer2"
     inkscape:showpageshadow="2"
     inkscape:deskcolor="#d1d1d1" /><style
     id="style7427"
     type="text/css">.st2{fill:#282828}</style><g
     inkscape:groupmode="layer"
     id="layer2"
     inkscape:label="Layer 2"><path
       id="path7429"
       style="stroke-width:2.42277;fill:#ababab;fill-opacity:1"
       d="M 147.0625 0 C 147.0625 0 54.996823 -0.00029461229 31.980469 6.0566406 C 19.624321 9.4485244 9.4485244 19.624231 6.0566406 32.222656 C -0.00029461229 55.23901 0 102.96875 0 102.96875 C 0 102.96875 -0.00029461229 150.93881 6.0566406 173.71289 C 9.4485244 186.31132 19.382043 196.24484 31.980469 199.63672 C 55.2391 205.93593 147.0625 205.93555 147.0625 205.93555 C 147.0625 205.93555 239.12818 205.93584 262.14453 199.87891 C 274.74296 196.48702 284.67648 186.5535 288.06836 173.95508 C 294.12529 150.93872 294.125 103.21094 294.125 103.21094 C 294.125 103.21094 294.36757 55.23901 288.06836 32.222656 C 284.67648 19.624231 274.74296 9.6907119 262.14453 6.2988281 C 239.12818 -0.00038452278 147.0625 0 147.0625 0 z M 751.78711 7.9960938 L 751.78711 191.15625 L 775.77148 191.15625 L 778.67969 179.04297 L 779.40625 179.04297 C 781.58675 183.40396 784.97876 186.79589 789.58203 189.46094 C 794.1853 191.88371 799.03114 193.33789 804.60352 193.33789 C 814.53689 193.33789 821.56274 188.7338 826.16602 179.76953 C 830.76929 170.80527 833.19141 156.51101 833.19141 137.37109 L 833.19141 117.01953 C 832.94913 102.24061 832.22329 90.854529 830.52734 82.859375 C 828.8314 74.621943 825.92334 68.806036 822.04688 65.171875 C 818.17044 61.537714 812.59824 59.599609 805.81445 59.599609 C 800.48437 59.599609 795.39622 61.053519 790.79297 64.203125 C 786.1897 67.110454 782.55559 71.228671 780.13281 76.074219 L 779.89062 76.074219 L 779.89062 7.9960938 L 751.78711 7.9960938 z M 323.43945 14.537109 L 356.39062 133.97852 L 356.63281 133.97852 L 356.63281 191.15625 L 385.2207 191.15625 L 385.2207 133.97852 L 418.65625 14.537109 L 389.82422 14.537109 L 377.71094 68.806641 C 374.31905 84.79695 372.13903 95.942795 371.16992 102.72656 L 370.44141 102.72656 C 368.98774 93.277744 366.80772 81.889711 363.90039 68.564453 L 352.27148 14.537109 L 323.43945 14.537109 z M 578.31641 14.537109 L 578.31641 38.037109 L 607.14648 38.037109 L 607.14648 191.15625 L 635.49414 191.15625 L 635.49414 38.037109 L 664.32422 38.037109 L 664.32422 14.537109 L 578.31641 14.537109 z M 117.74609 58.873047 L 194.30664 102.96875 L 117.74609 147.0625 L 117.74609 58.873047 z M 885.76562 59.357422 C 871.47126 59.357422 861.29522 63.71933 855.23828 72.683594 C 849.18135 81.647858 846.27539 95.699839 846.27539 115.08203 L 846.27539 137.61328 C 846.27539 156.51092 849.18144 170.32089 854.99609 179.28516 C 860.81075 188.24942 870.7447 192.85352 885.03906 192.85352 C 896.91066 192.85352 906.11671 189.94552 912.6582 184.13086 C 919.19969 178.3162 922.34961 169.35206 922.34961 157.48047 C 922.34961 155.54225 922.34972 154.08834 922.10742 152.87695 L 897.15234 151.42383 C 896.91007 159.41898 896.18422 164.99093 894.48828 168.38281 C 892.79234 171.7747 889.88443 173.4707 885.52344 173.4707 C 882.13155 173.4707 879.70952 172.50072 878.25586 170.5625 C 876.55992 168.86656 875.59002 165.71833 875.10547 161.59961 C 874.62091 157.48089 874.37891 151.18079 874.37891 142.94336 L 874.37891 136.40234 L 874.37891 135.91797 L 923.07617 135.91797 L 923.07617 113.87109 C 923.07617 100.30356 922.10823 89.643502 919.92773 81.890625 C 917.74724 74.380025 914.11331 68.563849 908.7832 64.929688 C 903.4531 61.295526 895.699 59.357422 885.76562 59.357422 z M 451.84766 59.841797 C 442.15658 59.841797 434.40264 61.779811 428.3457 65.65625 C 422.53105 69.532689 418.171 75.590603 415.26367 84.070312 C 412.59862 92.550022 411.14453 103.69409 411.14453 117.50391 L 411.14453 136.16016 C 411.14453 149.72769 412.35652 160.87194 414.7793 169.10938 C 417.20207 177.58908 421.32011 183.647 427.13477 187.52344 C 432.9494 191.39988 441.18765 193.3378 451.36328 193.58008 C 461.29668 193.58008 469.29081 191.64206 475.10547 187.76562 C 480.92013 183.88919 485.04003 177.58899 487.70508 169.35156 C 490.37013 160.87185 491.58008 149.96997 491.58008 136.16016 L 491.58008 117.50391 C 491.58008 103.45182 490.12794 92.307744 487.46289 84.070312 C 484.79784 75.832881 480.67796 69.532689 474.86328 65.65625 C 469.04862 61.779811 461.2965 59.841797 451.84766 59.841797 z M 506.60156 62.265625 L 506.60156 158.69141 C 506.60156 170.80528 508.53949 179.52723 512.6582 185.09961 C 516.77692 190.67199 523.07693 193.58008 531.55664 193.58008 C 543.91279 193.58008 553.36103 187.52198 559.41797 175.65039 L 560.14453 175.65039 L 562.56836 191.39844 L 585.3418 191.39844 L 585.3418 62.265625 L 556.26953 62.265625 L 556.26953 164.74805 C 555.30042 167.17082 553.60441 169.10884 551.18164 170.5625 C 548.75887 172.25844 546.33488 172.98633 543.91211 172.98633 C 541.00478 172.98633 538.82467 171.77434 537.61328 169.35156 C 536.40189 166.92879 535.67578 162.81075 535.67578 156.99609 L 535.67578 62.265625 L 506.60156 62.265625 z M 655.60352 62.265625 L 655.60352 158.69141 C 655.60352 170.80528 657.54144 179.52723 661.66016 185.09961 C 665.77887 190.67199 672.07693 193.58008 680.55664 193.58008 C 692.91279 193.58008 702.36299 187.52198 708.41992 175.65039 L 709.14648 175.65039 L 711.56836 191.39844 L 734.34375 191.39844 L 734.34375 62.265625 L 705.26953 62.265625 L 705.26953 164.74805 C 704.30042 167.17082 702.60441 169.10884 700.18164 170.5625 C 697.75887 172.25844 695.33684 172.98633 692.91406 172.98633 C 690.00673 172.98633 687.82467 171.77434 686.61328 169.35156 C 685.40189 166.92879 684.67578 162.81075 684.67578 156.99609 L 684.67578 62.265625 L 655.60352 62.265625 z M 883.82227 79.431641 C 884.20934 79.424543 884.61508 79.436512 885.03906 79.466797 C 887.94639 79.466797 890.3686 80.436871 891.82227 82.132812 C 893.27593 83.828754 894.4881 86.73471 894.97266 91.095703 C 895.45721 95.456696 895.69922 101.75671 895.69922 109.99414 L 895.69922 119.20117 L 874.37891 119.20117 L 874.37891 109.99414 C 874.37891 101.51443 874.62091 95.214419 875.10547 91.095703 C 875.59002 86.976987 876.56001 84.071032 878.01367 82.132812 C 879.28563 80.436871 881.11273 79.481326 883.82227 79.431641 z M 451.36328 79.708984 C 455.48197 79.708984 458.14586 81.646819 459.8418 86.007812 C 461.53771 90.368806 462.26562 97.152833 462.26562 106.35938 L 462.26562 146.57812 C 462.26562 156.02694 461.53771 163.05316 459.8418 167.17188 C 458.14583 171.53287 455.48188 173.4707 451.60547 173.4707 C 447.48675 173.4707 444.57866 171.29059 443.125 167.17188 C 441.42906 163.05316 440.70312 156.02694 440.70312 146.57812 L 440.70312 106.35938 C 440.70312 97.152833 441.42906 90.368806 443.125 86.007812 C 444.57866 81.889097 447.48684 79.708984 451.36328 79.708984 z M 792.97461 80.193359 C 795.88194 80.193359 798.30415 81.405441 799.75781 83.585938 C 801.45375 86.008712 802.42358 89.884741 803.15039 95.214844 C 803.87722 100.78722 804.11914 108.54124 804.11914 118.47461 L 804.11914 135.43359 L 803.87695 135.43359 C 803.87695 144.88241 803.39089 152.15037 802.66406 157.48047 C 801.93723 162.81057 800.48503 166.68669 798.78906 168.86719 C 796.85084 171.04768 794.42686 172.25977 791.51953 172.25977 C 789.09676 172.25977 786.91673 171.77389 784.97852 170.5625 C 783.0403 169.35111 781.3442 167.65511 780.13281 165.47461 L 780.13281 92.308594 C 781.10192 88.91671 782.79793 86.008712 785.2207 83.585938 C 787.64348 81.405441 790.30958 80.193359 792.97461 80.193359 z "
       transform="matrix(0.41275,0,0,0.41275,-57.15,-47.33949)" /></g></svg>
